<?xml version="1.0" encoding="utf-8"?>
<!-- Generator: Adobe Illustrator 17.0.0, SVG Export Plug-In . SVG Version: 6.00 Build 0)  -->
<!DOCTYPE svg PUBLIC "-//W3C//DTD SVG 1.1//EN" "http://www.w3.org/Graphics/SVG/1.1/DTD/svg11.dtd">
<svg version="1.1" id="Layer_1" xmlns="http://www.w3.org/2000/svg" xmlns:xlink="http://www.w3.org/1999/xlink" x="0px" y="0px"
	 width="176.229px" height="263.738px" viewBox="104.72 82.063 176.229 263.738"
	 enable-background="new 104.72 82.063 176.229 263.738" xml:space="preserve">
<path fill="#FFFFFF" d="M259.074,192.054l21.875-21.875l-88.114-88.116l-88.115,88.116l21.876,21.875l-21.875,21.875l21.878,21.878
	l-21.879,21.879l88.115,88.115l88.114-88.115l-21.879-21.879l21.879-21.878L259.074,192.054z M125.933,170.179l66.902-66.902
	l66.901,66.902l-11.268,11.269l-55.633-55.633l-55.633,55.633L125.933,170.179z M137.203,202.661l0.001,0.001l55.631-55.631
	l55.631,55.631l0.001-0.001l11.268,11.268l-66.901,66.9l-66.901-66.9L137.203,202.661z M192.835,324.588l-66.902-66.902
	l11.271-11.271l55.631,55.632l55.631-55.632l11.27,11.271L192.835,324.588z"/>
</svg>
